<svg xmlns="http://www.w3.org/2000/svg" width="17.709" height="18.229" viewBox="0 0 17.709 18.229">
  <path id="home" d="M24.854,15a.889.889,0,0,0-.48.163L16.3,19.7a.793.793,0,0,0-.3.618V32.448a.812.812,0,0,0,.781.781h6.327a.812.812,0,0,0,.781-.781V27.316h1.93v5.132a.812.812,0,0,0,.781.781h6.327a.812.812,0,0,0,.781-.781V20.316a.8.8,0,0,0-.3-.618l-8.073-4.535A.756.756,0,0,0,24.854,15Zm0,1.766,7.292,3.924V31.667H27.382V26.535a.812.812,0,0,0-.781-.781H23.108a.812.812,0,0,0-.781.781v5.132H17.562V20.69Z" transform="translate(-16 -15)" fill="#707070"/>
</svg>
