<svg xmlns="http://www.w3.org/2000/svg" width="29.356" height="25.308" viewBox="0 0 29.356 25.308">
  <g id="Pressed_Library_Icon_notification_" data-name="Pressed Library Icon (notification)" transform="translate(0.96 0.75)">
    <path id="Library_Icon_notification_selected_" data-name="Library Icon (notification, selected)" d="M23.056,24.6h1.471V18.574a8.584,8.584,0,0,1-1.471-.494Zm-5.392,0h1.471V.9H17.664Zm-5.49,0h1.471V.9H12.174ZM.9,24l1.372.494L10.311,2.184,8.939,1.69ZM23.056.9V7.417a8.584,8.584,0,0,1,1.471-.494V.9Zm5.49,11.848A2.941,2.941,0,1,1,25.6,9.786,2.96,2.96,0,0,1,28.546,12.748Z" transform="translate(-0.9 -0.9)" fill="none" stroke="#000" stroke-width="1.5" fill-rule="evenodd"/>
    <path id="Library_Icon_notification_selected_2" data-name="Library Icon (notification, selected)" d="M29.024,12.862A2.962,2.962,0,1,1,26.062,9.9,2.971,2.971,0,0,1,29.024,12.862Z" transform="translate(-1.378 -1.014)" fill="none" fill-rule="evenodd"/>
  </g>
</svg>
