<svg xmlns="http://www.w3.org/2000/svg" width="25.968" height="26.732" viewBox="0 0 25.968 26.732">
  <path id="pressed_home" data-name="pressed home" d="M28.984,15a1.3,1.3,0,0,0-.7.239L16.442,21.888A1.163,1.163,0,0,0,16,22.8V40.586a1.191,1.191,0,0,0,1.146,1.146h9.277a1.191,1.191,0,0,0,1.146-1.146V33.061H30.4v7.525a1.191,1.191,0,0,0,1.146,1.146h9.277a1.191,1.191,0,0,0,1.146-1.146V22.8a1.167,1.167,0,0,0-.442-.907L29.688,15.239A1.108,1.108,0,0,0,28.984,15Zm0,2.59,10.693,5.754v16.1H32.69V31.915a1.191,1.191,0,0,0-1.146-1.146H26.423a1.191,1.191,0,0,0-1.146,1.146V39.44H18.291v-16.1Z" transform="translate(-16 -15)"/>
</svg>
